<?xml version="1.0" encoding="utf-8"?>
<!-- Generator: Adobe Illustrator 25.0.1, SVG Export Plug-In . SVG Version: 6.00 Build 0)  -->
<svg version="1.1" id="Слой_1" xmlns="http://www.w3.org/2000/svg" xmlns:xlink="http://www.w3.org/1999/xlink" x="0px" y="0px"
	 viewBox="0 0 178.7 61.8" style="enable-background:new 0 0 178.7 61.8;" xml:space="preserve">
<style type="text/css">
	.st0{fill:#FFFFFF;}
	.st1{fill:#606060;}
	.st2{fill:none;stroke:#FFFFFF;stroke-width:2.4845;stroke-miterlimit:10;}
</style>
<path class="st0" d="M60.8,10.8c0.2-1-5.7-1.8-7.7-2c-0.3,0-0.6-0.3-0.5-0.7C52.7,7,53,4.6,52.9,3.9C52.5,1.9,42.6,0,31.6,0
	c-11,0-20.9,1.9-21.2,3.9c-0.1,0.7,0.2,3,0.3,4.1c0,0.3-0.2,0.6-0.5,0.7c-1.9,0.2-7.9,1-7.7,2c0.9,16.1,19.7,22.8,23.8,24.1
	c0.4,0.1,0.5,0.5,0.4,0.8l-1.6,3.7c-0.3,0.6-0.9,1.1-1.6,1.1h-6.1c-2.9,0-5.3,2.4-5.3,5.3v10.7c0,2.9,2.4,5.3,5.3,5.3H46
	c2.9,0,5.3-2.4,5.3-5.3V45.8c0-2.9-2.4-5.3-5.3-5.3h-6.1c-0.7,0-1.3-0.4-1.6-1.1l-1.6-3.7c-0.1-0.3,0-0.7,0.4-0.8
	C41.1,33.5,59.9,26.9,60.8,10.8z M6.2,13.5c-0.1-0.7,3.4-1.2,4.8-1.3c0.3,0,0.6,0.2,0.7,0.5c0.9,4.6,2.4,8.6,4.4,12.1
	c0.3,0.6-0.3,1.2-0.9,0.8C10.6,22.8,7.1,18.7,6.2,13.5z M28.1,51.3c0,0.9-0.7,1.6-1.6,1.6H25c-0.3,0-0.6,0.3-0.6,0.6v1.5
	c0,0.9-0.7,1.6-1.6,1.6h0c-0.9,0-1.6-0.7-1.6-1.6v-1.5c0-0.3-0.3-0.6-0.6-0.6h-1.5c-0.9,0-1.6-0.7-1.6-1.6v0c0-0.9,0.7-1.6,1.6-1.6
	h1.5c0.3,0,0.6-0.3,0.6-0.6v-1.5c0-0.9,0.7-1.6,1.6-1.6h0c0.9,0,1.6,0.7,1.6,1.6v1.5c0,0.3,0.3,0.6,0.6,0.6h1.5
	C27.4,49.7,28.1,50.4,28.1,51.3L28.1,51.3z M42.5,45.7c1.1,0,2,0.9,2,2s-0.9,2-2,2s-2-0.9-2-2S41.4,45.7,42.5,45.7z M38.8,54.8
	c0,1.1-0.9,2-2,2c-1.1,0-2-0.9-2-2c0-1.1,0.9-2,2-2C37.9,52.8,38.8,53.7,38.8,54.8z M47.3,24.8c2-3.5,3.6-7.6,4.4-12.1
	c0.1-0.3,0.4-0.5,0.7-0.5c1.4,0.2,4.9,0.7,4.8,1.3c-1,5.1-4.5,9.3-9,12.1C47.6,26,46.9,25.3,47.3,24.8z"/>
<g>
	<path class="st0" d="M87.5,38.9v5.8c-1.9,1-4,1.5-6.3,1.5c-3.7,0-6.9-1.2-9.4-3.6c-2.7-2.6-4.1-5.9-4.1-9.8c0-4.2,1.4-7.5,4.1-10
		c2.4-2.3,5.6-3.4,9.4-3.4c2.3,0,4.4,0.5,6.3,1.6v5.8C85.8,25,83.7,24,81.3,24c-2.5,0-4.6,0.9-6.1,2.6c-1.6,1.8-2.4,3.9-2.4,6.3
		c0,2.7,0.9,4.8,2.6,6.4s3.8,2.4,6.1,2.4C83.9,41.7,85.9,40.8,87.5,38.9z"/>
	<path class="st0" d="M91.4,29h4.7v9.4c0,1.3,0.3,2.3,1,2.9c0.6,0.6,1.4,0.8,2.4,0.8c0.9,0,1.7-0.3,2.4-0.8c0.7-0.6,1-1.6,1-2.9V29
		h4.7v10.2c0,2.2-0.7,3.9-2,5.1c-1.4,1.3-3.5,1.9-6,1.9c-2.6,0-4.6-0.6-6-1.9c-1.4-1.2-2-2.9-2-5.1V29z"/>
	<path class="st0" d="M116.7,43.5v11.1H112V29h4.7v2.2c1.3-1.8,3.1-2.7,5.4-2.7c2.4,0,4.4,0.8,5.9,2.5c1.5,1.7,2.3,3.8,2.3,6.3
		c0,2.6-0.8,4.7-2.3,6.4c-1.6,1.7-3.5,2.5-6,2.5C119.8,46.2,118,45.3,116.7,43.5z M124.2,34c-0.9-0.9-2-1.3-3.3-1.3
		s-2.4,0.4-3.3,1.3c-0.9,0.9-1.3,2-1.3,3.3s0.4,2.5,1.3,3.4c0.9,0.9,2,1.4,3.3,1.4s2.4-0.5,3.3-1.4c0.9-0.9,1.3-2,1.3-3.4
		S125,34.9,124.2,34z"/>
	<path class="st0" d="M134.6,20h5v16.1c0,1.6,0.4,2.9,1.2,3.8c1,1.2,2.3,1.8,4.1,1.8c1.7,0,3.1-0.6,4.1-1.8c0.8-0.9,1.2-2.2,1.2-3.8
		V20h5v15.7c0,2.9-0.6,5.2-1.9,6.8c-0.9,1.2-2.1,2.1-3.6,2.7s-3.1,1-4.8,1c-1.7,0-3.3-0.3-4.8-1c-1.5-0.6-2.7-1.6-3.6-2.7
		c-1.3-1.6-1.9-3.9-1.9-6.8V20z"/>
	<path class="st0" d="M165.1,43.5v11.1h-4.7V29h4.7v2.2c1.3-1.8,3.1-2.7,5.4-2.7c2.4,0,4.4,0.8,5.9,2.5c1.5,1.7,2.3,3.8,2.3,6.3
		c0,2.6-0.8,4.7-2.3,6.4c-1.6,1.7-3.5,2.5-6,2.5C168.2,46.2,166.4,45.3,165.1,43.5z M172.6,34c-0.9-0.9-2-1.3-3.3-1.3
		s-2.4,0.4-3.3,1.3c-0.9,0.9-1.3,2-1.3,3.3s0.4,2.5,1.3,3.4c0.9,0.9,2,1.4,3.3,1.4s2.4-0.5,3.3-1.4c0.9-0.9,1.3-2,1.3-3.4
		S173.4,34.9,172.6,34z"/>
</g>
</svg>
